<svg width="502" height="502" viewBox="0 0 502 502" fill="none" xmlns="http://www.w3.org/2000/svg">
<path d="M317.814 501H184.16C170.571 501 163.779 500.989 157.386 499.454C151.717 498.093 146.305 495.861 141.335 492.815C135.728 489.379 130.934 484.586 121.326 474.977L27.0417 380.693C17.4394 371.091 12.6268 366.278 9.19227 360.673C6.14624 355.703 3.89593 350.285 2.535 344.616C1 338.223 1 331.402 1 317.813V184.16C1 170.571 1 163.779 2.535 157.386C3.89593 151.717 6.14624 146.305 9.19227 141.334C12.5966 135.779 17.346 131.03 26.7803 121.596L27.0417 121.326L121.326 27.0417L121.594 26.7814C131.029 17.3463 135.779 12.5968 141.334 9.19227C146.305 6.14624 151.717 3.89593 157.386 2.535C163.779 1 170.571 1 184.16 1H317.813C331.402 1 338.223 1 344.616 2.535C350.285 3.89593 355.703 6.14624 360.673 9.19227C366.278 12.6268 371.091 17.4393 380.693 27.0417L474.977 121.326C484.584 130.933 489.38 135.728 492.815 141.335C495.861 146.305 498.093 151.717 499.454 157.386C500.989 163.779 501 170.571 501 184.16V317.814M500.989 317.84C500.989 331.429 500.989 338.223 499.454 344.617C498.093 350.285 495.861 355.703 492.815 360.673C489.379 366.28 484.585 371.085 474.977 380.693L380.693 474.977C371.085 484.585 366.28 489.38 360.673 492.815C355.703 495.861 350.285 498.093 344.617 499.454C338.223 500.989 331.429 500.989 317.84 500.989" stroke="white" stroke-linecap="round" stroke-linejoin="round"/>
</svg>
