<svg width="560" height="72" viewBox="0 0 560 72" fill="none" xmlns="http://www.w3.org/2000/svg">
<path d="M29.8004 71.9C23.8004 71.9 18.5671 71.1667 14.1004 69.7C9.63372 68.2333 6.20039 66.1667 3.80039 63.5C1.46706 60.7667 0.300391 57.6 0.300391 54C0.300391 48.5333 4.00039 45.8 11.4004 45.8C11.6671 50.8667 13.3671 54.7 16.5004 57.3C19.7004 59.9 24.1671 61.2 29.9004 61.2C34.6337 61.2 38.3004 60.4 40.9004 58.8C43.5004 57.1333 44.8004 54.8333 44.8004 51.9C44.8004 49.9667 44.3004 48.4 43.3004 47.2C42.3004 45.9333 40.6004 44.8333 38.2004 43.9C35.8004 42.9 32.3004 41.9 27.7004 40.9C21.1671 39.3667 16.0004 37.6667 12.2004 35.8C8.46706 33.9333 5.76706 31.7 4.10039 29.1C2.43372 26.4333 1.60039 23.1333 1.60039 19.2C1.60039 15.4 2.70039 12.0667 4.90039 9.2C7.16706 6.33333 10.3337 4.1 14.4004 2.49999C18.5337 0.899995 23.2671 0.0999949 28.6004 0.0999949C33.7337 0.0999949 38.3004 0.799996 42.3004 2.2C46.3671 3.53333 49.5337 5.43333 51.8004 7.9C54.1337 10.3667 55.3004 13.2 55.3004 16.4C55.3004 21.3333 51.7337 23.9 44.6004 24.1C44.2004 19.5 42.7337 16.1333 40.2004 14C37.6671 11.8667 33.8004 10.8 28.6004 10.8C24.1337 10.8 20.7004 11.5333 18.3004 13C15.9004 14.4667 14.7004 16.5333 14.7004 19.2C14.7004 21.0667 15.1671 22.6333 16.1004 23.9C17.0337 25.1 18.6004 26.1667 20.8004 27.1C23.0004 27.9667 26.1337 28.8667 30.2004 29.8C37.0671 31.3333 42.5004 33.0667 46.5004 35C50.5004 36.8667 53.4004 39.1667 55.2004 41.9C57.0004 44.5667 57.9004 47.8667 57.9004 51.8C57.9004 55.8667 56.7337 59.4333 54.4004 62.5C52.1337 65.5 48.8671 67.8333 44.6004 69.5C40.4004 71.1 35.4671 71.9 29.8004 71.9ZM65.5348 10.1C65.5348 6.96666 66.7014 4.53333 69.0348 2.8C71.3681 0.999995 74.6681 0.0999949 78.9348 0.0999949V61.9C78.9348 65.1 77.7681 67.5667 75.4348 69.3C73.1014 71.0333 69.8014 71.9 65.5348 71.9V10.1ZM95.6363 71C93.703 71 92.0363 70.3 90.6363 68.9C89.303 67.5 88.6363 65.8333 88.6363 63.9V10C88.6363 6.66666 89.7363 4.2 91.9363 2.6C94.1363 0.933329 97.503 0.0999949 102.036 0.0999949V59.4H129.036C132.17 59.4 134.536 60.4 136.136 62.4C137.736 64.3333 138.536 67.2 138.536 71H95.6363ZM157.603 71.9C154.403 71.9 152.236 70.4333 151.103 67.5L125.603 1.4C126.269 1.06666 127.169 0.766663 128.303 0.499996C129.436 0.233329 130.436 0.0999949 131.303 0.0999949C136.569 0.0999949 139.969 2.23333 141.503 6.5L156.903 49.6L154.503 56L155.603 56.4L173.603 6.5C175.203 2.23333 178.603 0.0999949 183.803 0.0999949C184.669 0.0999949 185.669 0.233329 186.803 0.499996C187.936 0.766663 188.869 1.06666 189.603 1.4L164.103 67.5C163.569 68.9 162.736 70 161.603 70.8C160.536 71.5333 159.203 71.9 157.603 71.9ZM195.187 7.09999C195.187 5.43333 195.82 4 197.087 2.8C198.42 1.6 200.02 0.999995 201.887 0.999995H246.487C246.487 5 245.787 7.93333 244.387 9.8C243.054 11.6 240.854 12.5 237.787 12.5H208.587V29.9H235.187C235.187 33.9 234.487 36.8333 233.087 38.7C231.754 40.5 229.554 41.4 226.487 41.4H208.587V59.5H239.887C242.887 59.5 245.054 60.4333 246.387 62.3C247.787 64.1 248.487 67 248.487 71H201.887C200.02 71 198.42 70.4333 197.087 69.3C195.82 68.1 195.187 66.6333 195.187 64.9V7.09999ZM254.175 7.09999C254.175 5.36666 254.809 3.93333 256.075 2.8C257.342 1.6 258.942 0.999995 260.875 0.999995H287.575C294.775 0.999995 300.342 2.9 304.275 6.7C308.275 10.5 310.275 15.8333 310.275 22.7C310.275 26.6333 309.475 29.9667 307.875 32.7C306.275 35.3667 303.842 37.5 300.575 39.1V39.4C306.442 42 309.375 46.9333 309.375 54.2V62C309.375 65.2 308.242 67.6667 305.975 69.4C303.709 71.0667 300.375 71.9 295.975 71.9V54.8C295.975 51.2667 295.275 48.6667 293.875 47C292.475 45.3333 290.342 44.5 287.475 44.5H267.375V62C267.375 65.2667 266.242 67.7333 263.975 69.4C261.775 71.0667 258.509 71.9 254.175 71.9V7.09999ZM286.875 33.1C290.075 33.1 292.542 32.2 294.275 30.4C296.009 28.5333 296.875 25.9333 296.875 22.6C296.875 15.8 293.542 12.4 286.875 12.4H267.375V33.1H286.875ZM323.77 71C321.97 71 320.403 70.4 319.07 69.2C317.737 68 317.07 66.5667 317.07 64.9V7.09999C317.07 5.43333 317.703 4 318.97 2.8C320.303 1.6 321.903 0.999995 323.77 0.999995H350.67C357.07 0.999995 362.17 2.8 365.97 6.4C369.837 9.93333 371.77 14.7 371.77 20.7C371.77 23.5667 371.003 26.3 369.47 28.9C367.937 31.4333 365.903 33.4 363.37 34.8V35.1C366.837 36.3 369.57 38.2667 371.57 41C373.637 43.7333 374.67 46.8667 374.67 50.4C374.67 54.4 373.737 57.9667 371.87 61.1C370.003 64.2333 367.403 66.6667 364.07 68.4C360.737 70.1333 356.937 71 352.67 71H323.77ZM350.47 30.4C352.67 30.4 354.537 29.5 356.07 27.7C357.67 25.9 358.47 23.7333 358.47 21.2C358.47 18.4667 357.737 16.3 356.27 14.7C354.87 13.1 352.937 12.3 350.47 12.3H330.07V30.4H350.47ZM352.47 59.7C355.203 59.7 357.37 58.9 358.97 57.3C360.57 55.6333 361.37 53.3667 361.37 50.5C361.37 47.7 360.57 45.5333 358.97 44C357.437 42.4 355.27 41.6 352.47 41.6H330.07V59.7H352.47ZM382.963 71.9C380.096 71.5667 377.83 70.5667 376.163 68.9C374.563 67.2333 373.763 65.1333 373.763 62.6C373.763 60.6667 374.23 58.6667 375.163 56.6L398.063 4.5C399.33 1.56666 401.53 0.0999949 404.663 0.0999949C407.73 0.0999949 409.896 1.56666 411.163 4.5L434.063 56.6C434.996 58.8 435.463 60.8 435.463 62.6C435.463 65.1333 434.63 67.2333 432.963 68.9C431.363 70.5667 429.096 71.5667 426.163 71.9L417.763 52.9H391.463L382.963 71.9ZM413.663 41.5L402.663 14.1L401.463 14.6L403.863 20.8L395.463 41.5H413.663ZM467.46 71.9C461.526 71.9 456.226 70.7667 451.56 68.5C446.96 66.2333 443.36 63.0667 440.76 59C438.16 54.9333 436.86 50.3 436.86 45.1V26.7C436.86 21.5 438.126 16.9 440.66 12.9C443.26 8.83333 446.826 5.7 451.36 3.5C455.893 1.23333 461.093 0.0999949 466.96 0.0999949C472.826 0.0999949 478.026 0.999995 482.56 2.8C487.16 4.53333 490.726 7 493.26 10.2C495.793 13.3333 497.06 16.9333 497.06 21C497.06 23.4667 496.226 25.4333 494.56 26.9C492.96 28.3 490.793 29 488.06 29C486.726 29 485.26 28.8 483.66 28.4C483.793 26.8 483.86 25.2333 483.86 23.7C483.86 20.1667 482.293 17.3 479.16 15.1C476.026 12.9 471.96 11.8 466.96 11.8C462.026 11.8 457.993 13.2 454.86 16C451.793 18.7333 450.26 22.3 450.26 26.7V45.1C450.26 49.5667 451.86 53.2 455.06 56C458.26 58.8 462.393 60.2 467.46 60.2C472.46 60.2 476.526 59.1 479.66 56.9C482.793 54.7 484.36 51.8667 484.36 48.4C484.36 46.8 484.293 45.2667 484.16 43.8C485.826 43.4667 487.226 43.3 488.36 43.3C491.16 43.3 493.393 44.0333 495.06 45.5C496.726 46.9667 497.56 48.9667 497.56 51.5C497.56 55.4333 496.293 58.9667 493.76 62.1C491.226 65.1667 487.66 67.5667 483.06 69.3C478.526 71.0333 473.326 71.9 467.46 71.9ZM503.214 10.2C503.214 6.93333 504.381 4.43333 506.714 2.7C509.048 0.966662 512.348 0.0999949 516.614 0.0999949V32.2L550.114 0.0999949C551.781 1.3 553.114 2.66666 554.114 4.2C555.181 5.66666 555.714 6.96666 555.714 8.1C555.714 9.1 555.348 10.1 554.614 11.1C553.948 12.0333 552.914 13.1667 551.514 14.5L531.514 33.4L559.014 67.7C556.948 70.5 554.248 71.9 550.914 71.9C547.714 71.9 545.148 70.7 543.214 68.3L522.314 41.8L516.614 47.4V62.4C516.614 65.6667 515.548 68.0667 513.414 69.6C511.281 71.1333 507.881 71.9 503.214 71.9V10.2Z" fill="#F9F9F9"/>
</svg>
