<svg width="560" height="181" viewBox="0 0 560 181" fill="none" xmlns="http://www.w3.org/2000/svg">
<path d="M114.23 13.4062C113.972 12.5076 113.609 11.7135 113.141 11.0241C112.673 10.3224 112.1 9.73153 111.423 9.25142C110.759 8.759 109.995 8.38352 109.134 8.125C108.284 7.86648 107.342 7.73722 106.308 7.73722C104.376 7.73722 102.677 8.21733 101.212 9.17755C99.7591 10.1378 98.6265 11.535 97.814 13.3693C97.0015 15.1913 96.5953 17.4195 96.5953 20.054C96.5953 22.6884 96.9954 24.929 97.7955 26.7756C98.5957 28.6222 99.7283 30.0317 101.193 31.0043C102.658 31.9645 104.388 32.4446 106.382 32.4446C108.192 32.4446 109.737 32.1245 111.017 31.4844C112.31 30.8319 113.295 29.9148 113.972 28.733C114.661 27.5511 115.006 26.1539 115.006 24.5412L116.631 24.7812H106.881V18.7614H122.706V23.5256C122.706 26.8494 122.004 29.7055 120.601 32.0938C119.198 34.4697 117.265 36.304 114.803 37.5966C112.341 38.8769 109.521 39.517 106.345 39.517C102.8 39.517 99.6852 38.7353 97.0015 37.1719C94.3178 35.5961 92.225 33.3617 90.7231 30.4688C89.2335 27.5634 88.4887 24.1165 88.4887 20.1278C88.4887 17.0625 88.9319 14.3295 89.8183 11.929C90.7169 9.5161 91.9726 7.47254 93.5853 5.7983C95.198 4.12405 97.0754 2.8499 99.2174 1.97585C101.359 1.1018 103.68 0.664771 106.179 0.664771C108.321 0.664771 110.315 0.978692 112.162 1.60653C114.009 2.22206 115.646 3.09612 117.074 4.22869C118.514 5.36127 119.69 6.70928 120.601 8.27273C121.512 9.82386 122.097 11.535 122.355 13.4062H114.23ZM140.97 39.554C138.053 39.554 135.542 38.9631 133.436 37.7812C131.344 36.5871 129.731 34.9006 128.598 32.7216C127.466 30.5303 126.899 27.9389 126.899 24.9474C126.899 22.0298 127.466 19.4692 128.598 17.2656C129.731 15.062 131.325 13.3447 133.381 12.1136C135.449 10.8826 137.874 10.267 140.657 10.267C142.528 10.267 144.27 10.5687 145.882 11.1719C147.507 11.7628 148.923 12.6553 150.13 13.8494C151.348 15.0436 152.296 16.5455 152.973 18.3551C153.65 20.1525 153.989 22.2576 153.989 24.6705V26.831H130.039V21.956H146.584C146.584 20.8234 146.338 19.8201 145.845 18.946C145.353 18.072 144.67 17.3887 143.796 16.8963C142.934 16.3916 141.931 16.1392 140.786 16.1392C139.592 16.1392 138.533 16.4162 137.61 16.9702C136.699 17.5118 135.985 18.2443 135.468 19.1676C134.951 20.0786 134.686 21.0942 134.674 22.2145V26.8494C134.674 28.2528 134.932 29.4654 135.449 30.4872C135.979 31.509 136.723 32.2969 137.684 32.8509C138.644 33.4048 139.783 33.6818 141.1 33.6818C141.974 33.6818 142.774 33.5587 143.5 33.3125C144.227 33.0663 144.848 32.697 145.365 32.2045C145.882 31.7121 146.276 31.1089 146.547 30.3949L153.823 30.875C153.453 32.6231 152.696 34.1496 151.551 35.4545C150.419 36.7472 148.954 37.7566 147.157 38.483C145.372 39.197 143.31 39.554 140.97 39.554ZM173.689 10.6364V16.5455H156.608V10.6364H173.689ZM160.486 3.84091H168.352V30.2841C168.352 31.0104 168.463 31.5767 168.685 31.983C168.906 32.3769 169.214 32.6539 169.608 32.8139C170.014 32.974 170.482 33.054 171.012 33.054C171.381 33.054 171.75 33.0232 172.12 32.9616C172.489 32.8878 172.772 32.8324 172.969 32.7955L174.206 38.6491C173.812 38.7723 173.258 38.9138 172.544 39.0739C171.83 39.2462 170.962 39.3509 169.941 39.3878C168.045 39.4616 166.383 39.2093 164.955 38.6307C163.539 38.0521 162.437 37.1534 161.649 35.9347C160.861 34.7159 160.474 33.1771 160.486 31.3182V3.84091ZM213.316 1.18182H221.311V25.7415C221.311 28.4991 220.653 30.9119 219.336 32.9801C218.031 35.0483 216.203 36.661 213.851 37.8182C211.5 38.9631 208.761 39.5355 205.634 39.5355C202.495 39.5355 199.749 38.9631 197.398 37.8182C195.047 36.661 193.219 35.0483 191.914 32.9801C190.609 30.9119 189.956 28.4991 189.956 25.7415V1.18182H197.952V25.0582C197.952 26.4986 198.266 27.7789 198.894 28.8991C199.534 30.0194 200.433 30.8996 201.59 31.5398C202.747 32.1799 204.095 32.5 205.634 32.5C207.185 32.5 208.533 32.1799 209.678 31.5398C210.835 30.8996 211.728 30.0194 212.355 28.8991C212.996 27.7789 213.316 26.4986 213.316 25.0582V1.18182ZM227.222 49.6364V10.6364H234.978V15.4006H235.329C235.673 14.6373 236.172 13.8617 236.824 13.0739C237.489 12.2737 238.351 11.6089 239.41 11.0795C240.481 10.5379 241.81 10.267 243.398 10.267C245.466 10.267 247.375 10.8087 249.123 11.892C250.871 12.9631 252.268 14.5819 253.314 16.7486C254.361 18.9029 254.884 21.6051 254.884 24.8551C254.884 28.0189 254.373 30.6903 253.351 32.8693C252.342 35.036 250.963 36.6795 249.215 37.7997C247.479 38.9077 245.534 39.4616 243.38 39.4616C241.853 39.4616 240.555 39.2093 239.484 38.7045C238.425 38.1998 237.557 37.5658 236.88 36.8026C236.203 36.027 235.686 35.2453 235.329 34.4574H235.089V49.6364H227.222ZM234.922 24.8182C234.922 26.5047 235.156 27.9759 235.624 29.2315C236.092 30.4872 236.769 31.4659 237.655 32.1676C238.542 32.857 239.619 33.2017 240.887 33.2017C242.167 33.2017 243.251 32.8509 244.137 32.1491C245.023 31.4351 245.694 30.4503 246.15 29.1946C246.618 27.9266 246.851 26.4678 246.851 24.8182C246.851 23.1809 246.624 21.7405 246.168 20.4972C245.713 19.2538 245.042 18.2812 244.155 17.5795C243.269 16.8778 242.18 16.527 240.887 16.527C239.607 16.527 238.523 16.8655 237.637 17.5426C236.763 18.2197 236.092 19.1799 235.624 20.4233C235.156 21.6667 234.922 23.1316 234.922 24.8182ZM270.06 39.4616C267.906 39.4616 265.955 38.9077 264.206 37.7997C262.471 36.6795 261.092 35.036 260.07 32.8693C259.061 30.6903 258.556 28.0189 258.556 24.8551C258.556 21.6051 259.079 18.9029 260.125 16.7486C261.172 14.5819 262.563 12.9631 264.299 11.892C266.047 10.8087 267.961 10.267 270.042 10.267C271.63 10.267 272.953 10.5379 274.012 11.0795C275.083 11.6089 275.945 12.2737 276.597 13.0739C277.262 13.8617 277.767 14.6373 278.111 15.4006H278.351V1.18182H286.199V39H278.444V34.4574H278.111C277.742 35.2453 277.219 36.027 276.542 36.8026C275.877 37.5658 275.009 38.1998 273.938 38.7045C272.879 39.2093 271.587 39.4616 270.06 39.4616ZM272.553 33.2017C273.821 33.2017 274.892 32.857 275.766 32.1676C276.652 31.4659 277.33 30.4872 277.797 29.2315C278.277 27.9759 278.518 26.5047 278.518 24.8182C278.518 23.1316 278.284 21.6667 277.816 20.4233C277.348 19.1799 276.671 18.2197 275.785 17.5426C274.898 16.8655 273.821 16.527 272.553 16.527C271.26 16.527 270.171 16.8778 269.285 17.5795C268.398 18.2812 267.727 19.2538 267.272 20.4972C266.816 21.7405 266.589 23.1809 266.589 24.8182C266.589 26.4678 266.816 27.9266 267.272 29.1946C267.74 30.4503 268.411 31.4351 269.285 32.1491C270.171 32.8509 271.26 33.2017 272.553 33.2017ZM300.235 39.5355C298.425 39.5355 296.813 39.2216 295.397 38.5938C293.981 37.9536 292.861 37.0118 292.036 35.7685C291.224 34.5128 290.817 32.9493 290.817 31.0781C290.817 29.5024 291.107 28.179 291.685 27.108C292.264 26.0369 293.052 25.1752 294.049 24.5227C295.046 23.8703 296.179 23.3778 297.447 23.0455C298.727 22.7131 300.069 22.4792 301.472 22.3438C303.122 22.1714 304.451 22.0114 305.461 21.8636C306.47 21.7036 307.203 21.4697 307.658 21.1619C308.114 20.8542 308.342 20.3987 308.342 19.7955V19.6847C308.342 18.5152 307.972 17.6103 307.234 16.9702C306.507 16.33 305.473 16.0099 304.131 16.0099C302.716 16.0099 301.589 16.3239 300.752 16.9517C299.915 17.5672 299.361 18.3428 299.09 19.2784L291.815 18.6875C292.184 16.964 292.91 15.4744 293.994 14.2188C295.077 12.9508 296.474 11.9782 298.185 11.3011C299.909 10.6117 301.903 10.267 304.168 10.267C305.744 10.267 307.252 10.4517 308.692 10.821C310.145 11.1903 311.432 11.7628 312.552 12.5384C313.684 13.3139 314.577 14.3111 315.229 15.5298C315.882 16.7363 316.208 18.1828 316.208 19.8693V39H308.748V35.0668H308.526C308.071 35.9531 307.461 36.7348 306.698 37.4119C305.935 38.0767 305.018 38.5999 303.947 38.9815C302.876 39.3509 301.638 39.5355 300.235 39.5355ZM302.488 34.1065C303.645 34.1065 304.667 33.8788 305.553 33.4233C306.44 32.9555 307.135 32.3277 307.64 31.5398C308.145 30.7519 308.397 29.8594 308.397 28.8622V25.8523C308.151 26.0123 307.812 26.16 307.381 26.2955C306.963 26.4186 306.489 26.5355 305.96 26.6463C305.43 26.7448 304.901 26.8371 304.371 26.9233C303.842 26.9972 303.362 27.0649 302.931 27.1264C302.008 27.2618 301.201 27.4773 300.512 27.7727C299.823 28.0682 299.287 28.4683 298.906 28.973C298.524 29.4654 298.333 30.081 298.333 30.8196C298.333 31.8906 298.721 32.7093 299.496 33.2756C300.284 33.8295 301.281 34.1065 302.488 34.1065ZM336.878 10.6364V16.5455H319.797V10.6364H336.878ZM323.675 3.84091H331.541V30.2841C331.541 31.0104 331.652 31.5767 331.873 31.983C332.095 32.3769 332.403 32.6539 332.797 32.8139C333.203 32.974 333.671 33.054 334.2 33.054C334.569 33.054 334.939 33.0232 335.308 32.9616C335.677 32.8878 335.961 32.8324 336.158 32.7955L337.395 38.6491C337.001 38.7723 336.447 38.9138 335.733 39.0739C335.019 39.2462 334.151 39.3509 333.129 39.3878C331.233 39.4616 329.571 39.2093 328.143 38.6307C326.728 38.0521 325.626 37.1534 324.838 35.9347C324.05 34.7159 323.662 33.1771 323.675 31.3182V3.84091ZM354.103 39.554C351.186 39.554 348.675 38.9631 346.569 37.7812C344.477 36.5871 342.864 34.9006 341.731 32.7216C340.599 30.5303 340.032 27.9389 340.032 24.9474C340.032 22.0298 340.599 19.4692 341.731 17.2656C342.864 15.062 344.458 13.3447 346.514 12.1136C348.582 10.8826 351.007 10.267 353.79 10.267C355.661 10.267 357.403 10.5687 359.015 11.1719C360.64 11.7628 362.056 12.6553 363.263 13.8494C364.481 15.0436 365.429 16.5455 366.106 18.3551C366.783 20.1525 367.122 22.2576 367.122 24.6705V26.831H343.172V21.956H359.717C359.717 20.8234 359.471 19.8201 358.978 18.946C358.486 18.072 357.803 17.3887 356.929 16.8963C356.067 16.3916 355.064 16.1392 353.919 16.1392C352.725 16.1392 351.666 16.4162 350.743 16.9702C349.832 17.5118 349.118 18.2443 348.601 19.1676C348.084 20.0786 347.819 21.0942 347.807 22.2145V26.8494C347.807 28.2528 348.065 29.4654 348.582 30.4872C349.112 31.509 349.856 32.2969 350.817 32.8509C351.777 33.4048 352.916 33.6818 354.233 33.6818C355.107 33.6818 355.907 33.5587 356.633 33.3125C357.36 33.0663 357.981 32.697 358.498 32.2045C359.015 31.7121 359.409 31.1089 359.68 30.3949L366.956 30.875C366.586 32.6231 365.829 34.1496 364.684 35.4545C363.552 36.7472 362.087 37.7566 360.29 38.483C358.505 39.197 356.443 39.554 354.103 39.554ZM395.335 18.7244L388.133 19.1676C388.01 18.5521 387.745 17.9981 387.339 17.5057C386.933 17.0009 386.397 16.6009 385.733 16.3054C385.08 15.9976 384.298 15.8438 383.387 15.8438C382.169 15.8438 381.141 16.1023 380.304 16.6193C379.467 17.1241 379.048 17.8011 379.048 18.6506C379.048 19.3277 379.319 19.9001 379.86 20.3679C380.402 20.8357 381.332 21.2112 382.649 21.4943L387.782 22.5284C390.54 23.0947 392.596 24.0057 393.95 25.2614C395.304 26.517 395.981 28.1667 395.981 30.2102C395.981 32.0691 395.433 33.7003 394.338 35.1037C393.254 36.5071 391.765 37.6027 389.869 38.3906C387.985 39.1662 385.813 39.554 383.351 39.554C379.596 39.554 376.604 38.7723 374.376 37.2088C372.16 35.633 370.861 33.491 370.48 30.7827L378.217 30.3764C378.451 31.5213 379.017 32.3954 379.916 32.9986C380.815 33.5895 381.966 33.8849 383.369 33.8849C384.748 33.8849 385.856 33.6203 386.693 33.0909C387.542 32.5492 387.973 31.8537 387.985 31.0043C387.973 30.2902 387.672 29.7055 387.081 29.25C386.49 28.7822 385.579 28.4252 384.348 28.179L379.436 27.2003C376.666 26.6463 374.604 25.6861 373.25 24.3196C371.908 22.9531 371.237 21.2112 371.237 19.0938C371.237 17.2718 371.729 15.7022 372.714 14.3849C373.711 13.0677 375.109 12.0521 376.906 11.3381C378.716 10.6241 380.833 10.267 383.258 10.267C386.841 10.267 389.66 11.0241 391.716 12.5384C393.784 14.0526 394.99 16.1146 395.335 18.7244ZM424.745 39.554C421.877 39.554 419.396 38.9446 417.303 37.7259C415.223 36.4948 413.616 34.7836 412.484 32.5923C411.351 30.3887 410.785 27.8343 410.785 24.929C410.785 21.9991 411.351 19.4384 412.484 17.2472C413.616 15.0436 415.223 13.3324 417.303 12.1136C419.396 10.8826 421.877 10.267 424.745 10.267C427.614 10.267 430.088 10.8826 432.168 12.1136C434.261 13.3324 435.874 15.0436 437.007 17.2472C438.139 19.4384 438.705 21.9991 438.705 24.929C438.705 27.8343 438.139 30.3887 437.007 32.5923C435.874 34.7836 434.261 36.4948 432.168 37.7259C430.088 38.9446 427.614 39.554 424.745 39.554ZM424.782 33.4602C426.087 33.4602 427.177 33.0909 428.051 32.3523C428.925 31.6013 429.583 30.5795 430.026 29.2869C430.482 27.9943 430.71 26.5232 430.71 24.8736C430.71 23.224 430.482 21.7528 430.026 20.4602C429.583 19.1676 428.925 18.1458 428.051 17.3949C427.177 16.6439 426.087 16.2685 424.782 16.2685C423.465 16.2685 422.357 16.6439 421.458 17.3949C420.572 18.1458 419.901 19.1676 419.445 20.4602C419.002 21.7528 418.781 23.224 418.781 24.8736C418.781 26.5232 419.002 27.9943 419.445 29.2869C419.901 30.5795 420.572 31.6013 421.458 32.3523C422.357 33.0909 423.465 33.4602 424.782 33.4602ZM451.167 22.6023V39H443.3V10.6364H450.798V15.6406H451.13C451.758 13.991 452.81 12.6861 454.288 11.7259C455.765 10.7533 457.556 10.267 459.661 10.267C461.631 10.267 463.348 10.6979 464.813 11.5597C466.278 12.4214 467.417 13.6525 468.229 15.2528C469.042 16.8409 469.448 18.7367 469.448 20.9403V39H461.582V22.3438C461.594 20.608 461.151 19.2538 460.252 18.2812C459.353 17.2964 458.116 16.804 456.541 16.804C455.482 16.804 454.546 17.0317 453.734 17.4872C452.934 17.9427 452.306 18.6075 451.85 19.4815C451.407 20.3433 451.179 21.3835 451.167 22.6023ZM29.8375 123.9C23.8375 123.9 18.6042 123.167 14.1375 121.7C9.67083 120.233 6.2375 118.167 3.8375 115.5C1.50417 112.767 0.3375 109.6 0.3375 106C0.3375 100.533 4.0375 97.8 11.4375 97.8C11.7042 102.867 13.4042 106.7 16.5375 109.3C19.7375 111.9 24.2042 113.2 29.9375 113.2C34.6708 113.2 38.3375 112.4 40.9375 110.8C43.5375 109.133 44.8375 106.833 44.8375 103.9C44.8375 101.967 44.3375 100.4 43.3375 99.2C42.3375 97.9333 40.6375 96.8333 38.2375 95.9C35.8375 94.9 32.3375 93.9 27.7375 92.9C21.2042 91.3667 16.0375 89.6667 12.2375 87.8C8.50417 85.9333 5.80417 83.7 4.1375 81.1C2.47083 78.4333 1.6375 75.1333 1.6375 71.2C1.6375 67.4 2.7375 64.0667 4.9375 61.2C7.20417 58.3333 10.3708 56.1 14.4375 54.5C18.5708 52.9 23.3042 52.1 28.6375 52.1C33.7708 52.1 38.3375 52.8 42.3375 54.2C46.4042 55.5333 49.5708 57.4333 51.8375 59.9C54.1708 62.3667 55.3375 65.2 55.3375 68.4C55.3375 73.3333 51.7708 75.9 44.6375 76.1C44.2375 71.5 42.7708 68.1333 40.2375 66C37.7042 63.8667 33.8375 62.8 28.6375 62.8C24.1708 62.8 20.7375 63.5333 18.3375 65C15.9375 66.4667 14.7375 68.5333 14.7375 71.2C14.7375 73.0667 15.2042 74.6333 16.1375 75.9C17.0708 77.1 18.6375 78.1667 20.8375 79.1C23.0375 79.9667 26.1708 80.8667 30.2375 81.8C37.1042 83.3333 42.5375 85.0667 46.5375 87C50.5375 88.8667 53.4375 91.1667 55.2375 93.9C57.0375 96.5667 57.9375 99.8667 57.9375 103.8C57.9375 107.867 56.7708 111.433 54.4375 114.5C52.1708 117.5 48.9042 119.833 44.6375 121.5C40.4375 123.1 35.5042 123.9 29.8375 123.9ZM65.5719 62.1C65.5719 58.9667 66.7385 56.5333 69.0719 54.8C71.4052 53 74.7052 52.1 78.9719 52.1V113.9C78.9719 117.1 77.8052 119.567 75.4719 121.3C73.1385 123.033 69.8385 123.9 65.5719 123.9V62.1ZM95.6734 123C93.7401 123 92.0734 122.3 90.6734 120.9C89.3401 119.5 88.6734 117.833 88.6734 115.9V62C88.6734 58.6667 89.7734 56.2 91.9734 54.6C94.1734 52.9333 97.5401 52.1 102.073 52.1V111.4H129.073C132.207 111.4 134.573 112.4 136.173 114.4C137.773 116.333 138.573 119.2 138.573 123H95.6734ZM157.64 123.9C154.44 123.9 152.273 122.433 151.14 119.5L125.64 53.4C126.307 53.0667 127.207 52.7667 128.34 52.5C129.473 52.2333 130.473 52.1 131.34 52.1C136.607 52.1 140.007 54.2333 141.54 58.5L156.94 101.6L154.54 108L155.64 108.4L173.64 58.5C175.24 54.2333 178.64 52.1 183.84 52.1C184.707 52.1 185.707 52.2333 186.84 52.5C187.973 52.7667 188.907 53.0667 189.64 53.4L164.14 119.5C163.607 120.9 162.773 122 161.64 122.8C160.573 123.533 159.24 123.9 157.64 123.9ZM195.224 59.1C195.224 57.4333 195.858 56 197.124 54.8C198.458 53.6 200.058 53 201.924 53H246.524C246.524 57 245.824 59.9333 244.424 61.8C243.091 63.6 240.891 64.5 237.824 64.5H208.624V81.9H235.224C235.224 85.9 234.524 88.8333 233.124 90.7C231.791 92.5 229.591 93.4 226.524 93.4H208.624V111.5H239.924C242.924 111.5 245.091 112.433 246.424 114.3C247.824 116.1 248.524 119 248.524 123H201.924C200.058 123 198.458 122.433 197.124 121.3C195.858 120.1 195.224 118.633 195.224 116.9V59.1ZM254.213 59.1C254.213 57.3667 254.846 55.9333 256.113 54.8C257.379 53.6 258.979 53 260.913 53H287.613C294.813 53 300.379 54.9 304.313 58.7C308.313 62.5 310.313 67.8333 310.313 74.7C310.313 78.6333 309.513 81.9667 307.913 84.7C306.313 87.3667 303.879 89.5 300.613 91.1V91.4C306.479 94 309.413 98.9333 309.413 106.2V114C309.413 117.2 308.279 119.667 306.013 121.4C303.746 123.067 300.413 123.9 296.013 123.9V106.8C296.013 103.267 295.313 100.667 293.913 99C292.513 97.3333 290.379 96.5 287.513 96.5H267.413V114C267.413 117.267 266.279 119.733 264.013 121.4C261.813 123.067 258.546 123.9 254.213 123.9V59.1ZM286.913 85.1C290.113 85.1 292.579 84.2 294.313 82.4C296.046 80.5333 296.913 77.9333 296.913 74.6C296.913 67.8 293.579 64.4 286.913 64.4H267.413V85.1H286.913ZM323.807 123C322.007 123 320.44 122.4 319.107 121.2C317.774 120 317.107 118.567 317.107 116.9V59.1C317.107 57.4333 317.74 56 319.007 54.8C320.34 53.6 321.94 53 323.807 53H350.707C357.107 53 362.207 54.8 366.007 58.4C369.874 61.9333 371.807 66.7 371.807 72.7C371.807 75.5667 371.04 78.3 369.507 80.9C367.974 83.4333 365.94 85.4 363.407 86.8V87.1C366.874 88.3 369.607 90.2667 371.607 93C373.674 95.7333 374.707 98.8667 374.707 102.4C374.707 106.4 373.774 109.967 371.907 113.1C370.04 116.233 367.44 118.667 364.107 120.4C360.774 122.133 356.974 123 352.707 123H323.807ZM350.507 82.4C352.707 82.4 354.574 81.5 356.107 79.7C357.707 77.9 358.507 75.7333 358.507 73.2C358.507 70.4667 357.774 68.3 356.307 66.7C354.907 65.1 352.974 64.3 350.507 64.3H330.107V82.4H350.507ZM352.507 111.7C355.24 111.7 357.407 110.9 359.007 109.3C360.607 107.633 361.407 105.367 361.407 102.5C361.407 99.7 360.607 97.5333 359.007 96C357.474 94.4 355.307 93.6 352.507 93.6H330.107V111.7H352.507ZM383 123.9C380.133 123.567 377.867 122.567 376.2 120.9C374.6 119.233 373.8 117.133 373.8 114.6C373.8 112.667 374.267 110.667 375.2 108.6L398.1 56.5C399.367 53.5667 401.567 52.1 404.7 52.1C407.767 52.1 409.933 53.5667 411.2 56.5L434.1 108.6C435.033 110.8 435.5 112.8 435.5 114.6C435.5 117.133 434.667 119.233 433 120.9C431.4 122.567 429.133 123.567 426.2 123.9L417.8 104.9H391.5L383 123.9ZM413.7 93.5L402.7 66.1L401.5 66.6L403.9 72.8L395.5 93.5H413.7ZM467.497 123.9C461.564 123.9 456.264 122.767 451.597 120.5C446.997 118.233 443.397 115.067 440.797 111C438.197 106.933 436.897 102.3 436.897 97.1V78.7C436.897 73.5 438.164 68.9 440.697 64.9C443.297 60.8333 446.864 57.7 451.397 55.5C455.93 53.2333 461.13 52.1 466.997 52.1C472.864 52.1 478.064 53 482.597 54.8C487.197 56.5333 490.764 59 493.297 62.2C495.83 65.3333 497.097 68.9333 497.097 73C497.097 75.4667 496.264 77.4333 494.597 78.9C492.997 80.3 490.83 81 488.097 81C486.764 81 485.297 80.8 483.697 80.4C483.83 78.8 483.897 77.2333 483.897 75.7C483.897 72.1667 482.33 69.3 479.197 67.1C476.064 64.9 471.997 63.8 466.997 63.8C462.064 63.8 458.03 65.2 454.897 68C451.83 70.7333 450.297 74.3 450.297 78.7V97.1C450.297 101.567 451.897 105.2 455.097 108C458.297 110.8 462.43 112.2 467.497 112.2C472.497 112.2 476.564 111.1 479.697 108.9C482.83 106.7 484.397 103.867 484.397 100.4C484.397 98.8 484.33 97.2667 484.197 95.8C485.864 95.4667 487.264 95.3 488.397 95.3C491.197 95.3 493.43 96.0333 495.097 97.5C496.764 98.9667 497.597 100.967 497.597 103.5C497.597 107.433 496.33 110.967 493.797 114.1C491.264 117.167 487.697 119.567 483.097 121.3C478.564 123.033 473.364 123.9 467.497 123.9ZM503.252 62.2C503.252 58.9333 504.418 56.4333 506.752 54.7C509.085 52.9667 512.385 52.1 516.652 52.1V84.2L550.152 52.1C551.818 53.3 553.152 54.6667 554.152 56.2C555.218 57.6667 555.752 58.9667 555.752 60.1C555.752 61.1 555.385 62.1 554.652 63.1C553.985 64.0333 552.952 65.1667 551.552 66.5L531.552 85.4L559.052 119.7C556.985 122.5 554.285 123.9 550.952 123.9C547.752 123.9 545.185 122.7 543.252 120.3L522.352 93.8L516.652 99.4V114.4C516.652 117.667 515.585 120.067 513.452 121.6C511.318 123.133 507.918 123.9 503.252 123.9V62.2ZM126.225 170H112.819V132.182H126.336C130.14 132.182 133.414 132.939 136.16 134.453C138.905 135.955 141.016 138.116 142.494 140.935C143.983 143.754 144.728 147.127 144.728 151.054C144.728 154.993 143.983 158.379 142.494 161.21C141.016 164.042 138.893 166.214 136.123 167.729C133.365 169.243 130.066 170 126.225 170ZM120.815 163.149H125.893C128.256 163.149 130.244 162.731 131.857 161.893C133.482 161.044 134.701 159.733 135.513 157.96C136.338 156.175 136.751 153.873 136.751 151.054C136.751 148.259 136.338 145.976 135.513 144.203C134.701 142.43 133.488 141.125 131.876 140.288C130.263 139.451 128.275 139.033 125.911 139.033H120.815V163.149ZM162.909 170.554C159.992 170.554 157.48 169.963 155.375 168.781C153.282 167.587 151.67 165.901 150.537 163.722C149.405 161.53 148.838 158.939 148.838 155.947C148.838 153.03 149.405 150.469 150.537 148.266C151.67 146.062 153.264 144.345 155.32 143.114C157.388 141.883 159.813 141.267 162.595 141.267C164.467 141.267 166.208 141.569 167.821 142.172C169.446 142.763 170.862 143.655 172.068 144.849C173.287 146.044 174.235 147.545 174.912 149.355C175.589 151.152 175.928 153.258 175.928 155.67V157.831H151.977V152.956H168.523C168.523 151.823 168.277 150.82 167.784 149.946C167.292 149.072 166.609 148.389 165.735 147.896C164.873 147.392 163.869 147.139 162.725 147.139C161.53 147.139 160.472 147.416 159.548 147.97C158.637 148.512 157.923 149.244 157.406 150.168C156.889 151.079 156.625 152.094 156.612 153.214V157.849C156.612 159.253 156.871 160.465 157.388 161.487C157.917 162.509 158.662 163.297 159.622 163.851C160.583 164.405 161.721 164.682 163.039 164.682C163.913 164.682 164.713 164.559 165.439 164.312C166.165 164.066 166.787 163.697 167.304 163.205C167.821 162.712 168.215 162.109 168.486 161.395L175.762 161.875C175.392 163.623 174.635 165.15 173.49 166.455C172.358 167.747 170.893 168.757 169.095 169.483C167.31 170.197 165.248 170.554 162.909 170.554ZM206.223 141.636L196.307 170H187.443L177.527 141.636H185.836L191.727 161.93H192.022L197.895 141.636H206.223ZM221.74 170.554C218.823 170.554 216.311 169.963 214.206 168.781C212.113 167.587 210.501 165.901 209.368 163.722C208.236 161.53 207.669 158.939 207.669 155.947C207.669 153.03 208.236 150.469 209.368 148.266C210.501 146.062 212.095 144.345 214.151 143.114C216.219 141.883 218.644 141.267 221.426 141.267C223.298 141.267 225.04 141.569 226.652 142.172C228.277 142.763 229.693 143.655 230.899 144.849C232.118 146.044 233.066 147.545 233.743 149.355C234.42 151.152 234.759 153.258 234.759 155.67V157.831H210.809V152.956H227.354C227.354 151.823 227.108 150.82 226.615 149.946C226.123 149.072 225.44 148.389 224.566 147.896C223.704 147.392 222.701 147.139 221.556 147.139C220.362 147.139 219.303 147.416 218.38 147.97C217.469 148.512 216.755 149.244 216.238 150.168C215.72 151.079 215.456 152.094 215.443 153.214V157.849C215.443 159.253 215.702 160.465 216.219 161.487C216.748 162.509 217.493 163.297 218.453 163.851C219.414 164.405 220.552 164.682 221.87 164.682C222.744 164.682 223.544 164.559 224.27 164.312C224.997 164.066 225.618 163.697 226.135 163.205C226.652 162.712 227.046 162.109 227.317 161.395L234.593 161.875C234.223 163.623 233.466 165.15 232.321 166.455C231.189 167.747 229.724 168.757 227.926 169.483C226.141 170.197 224.079 170.554 221.74 170.554ZM247.239 132.182V170H239.372V132.182H247.239ZM265.836 170.554C262.967 170.554 260.487 169.945 258.394 168.726C256.313 167.495 254.707 165.784 253.574 163.592C252.442 161.389 251.875 158.834 251.875 155.929C251.875 152.999 252.442 150.438 253.574 148.247C254.707 146.044 256.313 144.332 258.394 143.114C260.487 141.883 262.967 141.267 265.836 141.267C268.704 141.267 271.178 141.883 273.259 143.114C275.352 144.332 276.964 146.044 278.097 148.247C279.23 150.438 279.796 152.999 279.796 155.929C279.796 158.834 279.23 161.389 278.097 163.592C276.964 165.784 275.352 167.495 273.259 168.726C271.178 169.945 268.704 170.554 265.836 170.554ZM265.873 164.46C267.177 164.46 268.267 164.091 269.141 163.352C270.015 162.601 270.674 161.58 271.117 160.287C271.572 158.994 271.8 157.523 271.8 155.874C271.8 154.224 271.572 152.753 271.117 151.46C270.674 150.168 270.015 149.146 269.141 148.395C268.267 147.644 267.177 147.268 265.873 147.268C264.555 147.268 263.447 147.644 262.549 148.395C261.662 149.146 260.991 150.168 260.536 151.46C260.093 152.753 259.871 154.224 259.871 155.874C259.871 157.523 260.093 158.994 260.536 160.287C260.991 161.58 261.662 162.601 262.549 163.352C263.447 164.091 264.555 164.46 265.873 164.46ZM284.391 180.636V141.636H292.147V146.401H292.497C292.842 145.637 293.341 144.862 293.993 144.074C294.658 143.274 295.52 142.609 296.578 142.08C297.649 141.538 298.979 141.267 300.567 141.267C302.635 141.267 304.543 141.809 306.291 142.892C308.04 143.963 309.437 145.582 310.483 147.749C311.53 149.903 312.053 152.605 312.053 155.855C312.053 159.019 311.542 161.69 310.52 163.869C309.511 166.036 308.132 167.679 306.384 168.8C304.648 169.908 302.703 170.462 300.549 170.462C299.022 170.462 297.723 170.209 296.652 169.705C295.594 169.2 294.726 168.566 294.049 167.803C293.372 167.027 292.854 166.245 292.497 165.457H292.257V180.636H284.391ZM292.091 155.818C292.091 157.505 292.325 158.976 292.793 160.232C293.261 161.487 293.938 162.466 294.824 163.168C295.711 163.857 296.788 164.202 298.056 164.202C299.336 164.202 300.419 163.851 301.306 163.149C302.192 162.435 302.863 161.45 303.318 160.195C303.786 158.927 304.02 157.468 304.02 155.818C304.02 154.181 303.792 152.741 303.337 151.497C302.881 150.254 302.211 149.281 301.324 148.58C300.438 147.878 299.348 147.527 298.056 147.527C296.775 147.527 295.692 147.866 294.806 148.543C293.932 149.22 293.261 150.18 292.793 151.423C292.325 152.667 292.091 154.132 292.091 155.818ZM316.777 170V141.636H324.274V146.641H324.607C325.198 144.979 326.182 143.668 327.561 142.707C328.94 141.747 330.59 141.267 332.51 141.267C334.455 141.267 336.111 141.753 337.477 142.726C338.844 143.686 339.755 144.991 340.21 146.641H340.506C341.084 145.016 342.131 143.717 343.645 142.744C345.172 141.759 346.975 141.267 349.056 141.267C351.702 141.267 353.851 142.11 355.5 143.797C357.162 145.471 357.993 147.847 357.993 150.925V170H350.145V152.476C350.145 150.9 349.727 149.718 348.889 148.93C348.052 148.143 347.006 147.749 345.75 147.749C344.322 147.749 343.208 148.204 342.408 149.115C341.608 150.014 341.208 151.202 341.208 152.679V170H333.581V152.31C333.581 150.919 333.181 149.811 332.381 148.986C331.593 148.161 330.553 147.749 329.26 147.749C328.386 147.749 327.598 147.97 326.896 148.413C326.207 148.844 325.659 149.454 325.253 150.241C324.847 151.017 324.644 151.928 324.644 152.974V170H316.777ZM376.613 170.554C373.695 170.554 371.184 169.963 369.079 168.781C366.986 167.587 365.373 165.901 364.241 163.722C363.108 161.53 362.542 158.939 362.542 155.947C362.542 153.03 363.108 150.469 364.241 148.266C365.373 146.062 366.968 144.345 369.024 143.114C371.092 141.883 373.517 141.267 376.299 141.267C378.17 141.267 379.912 141.569 381.525 142.172C383.15 142.763 384.566 143.655 385.772 144.849C386.991 146.044 387.939 147.545 388.616 149.355C389.293 151.152 389.631 153.258 389.631 155.67V157.831H365.681V152.956H382.227C382.227 151.823 381.98 150.82 381.488 149.946C380.996 149.072 380.312 148.389 379.438 147.896C378.577 147.392 377.573 147.139 376.428 147.139C375.234 147.139 374.176 147.416 373.252 147.97C372.341 148.512 371.627 149.244 371.11 150.168C370.593 151.079 370.328 152.094 370.316 153.214V157.849C370.316 159.253 370.575 160.465 371.092 161.487C371.621 162.509 372.366 163.297 373.326 163.851C374.286 164.405 375.425 164.682 376.742 164.682C377.616 164.682 378.417 164.559 379.143 164.312C379.869 164.066 380.491 163.697 381.008 163.205C381.525 162.712 381.919 162.109 382.19 161.395L389.465 161.875C389.096 163.623 388.339 165.15 387.194 166.455C386.061 167.747 384.596 168.757 382.799 169.483C381.014 170.197 378.952 170.554 376.613 170.554ZM402.111 153.602V170H394.245V141.636H401.742V146.641H402.075C402.702 144.991 403.755 143.686 405.232 142.726C406.709 141.753 408.501 141.267 410.606 141.267C412.575 141.267 414.293 141.698 415.758 142.56C417.223 143.421 418.361 144.652 419.174 146.253C419.986 147.841 420.393 149.737 420.393 151.94V170H412.526V153.344C412.539 151.608 412.095 150.254 411.197 149.281C410.298 148.296 409.061 147.804 407.485 147.804C406.426 147.804 405.491 148.032 404.678 148.487C403.878 148.943 403.25 149.607 402.795 150.482C402.352 151.343 402.124 152.384 402.111 153.602ZM441.159 141.636V147.545H424.078V141.636H441.159ZM427.956 134.841H435.823V161.284C435.823 162.01 435.933 162.577 436.155 162.983C436.377 163.377 436.684 163.654 437.078 163.814C437.485 163.974 437.952 164.054 438.482 164.054C438.851 164.054 439.22 164.023 439.59 163.962C439.959 163.888 440.242 163.832 440.439 163.795L441.676 169.649C441.282 169.772 440.728 169.914 440.014 170.074C439.3 170.246 438.432 170.351 437.411 170.388C435.515 170.462 433.853 170.209 432.425 169.631C431.009 169.052 429.907 168.153 429.119 166.935C428.332 165.716 427.944 164.177 427.956 162.318V134.841ZM469.008 149.724L461.806 150.168C461.683 149.552 461.418 148.998 461.012 148.506C460.606 148.001 460.07 147.601 459.405 147.305C458.753 146.998 457.971 146.844 457.06 146.844C455.841 146.844 454.813 147.102 453.976 147.619C453.139 148.124 452.721 148.801 452.721 149.651C452.721 150.328 452.991 150.9 453.533 151.368C454.075 151.836 455.004 152.211 456.321 152.494L461.455 153.528C464.213 154.095 466.268 155.006 467.623 156.261C468.977 157.517 469.654 159.167 469.654 161.21C469.654 163.069 469.106 164.7 468.01 166.104C466.927 167.507 465.437 168.603 463.542 169.391C461.658 170.166 459.485 170.554 457.023 170.554C453.268 170.554 450.277 169.772 448.049 168.209C445.833 166.633 444.534 164.491 444.152 161.783L451.89 161.376C452.124 162.521 452.69 163.395 453.589 163.999C454.487 164.589 455.638 164.885 457.042 164.885C458.42 164.885 459.528 164.62 460.366 164.091C461.215 163.549 461.646 162.854 461.658 162.004C461.646 161.29 461.344 160.705 460.753 160.25C460.162 159.782 459.251 159.425 458.02 159.179L453.108 158.2C450.339 157.646 448.276 156.686 446.922 155.32C445.58 153.953 444.91 152.211 444.91 150.094C444.91 148.272 445.402 146.702 446.387 145.385C447.384 144.068 448.781 143.052 450.579 142.338C452.388 141.624 454.506 141.267 456.931 141.267C460.513 141.267 463.332 142.024 465.388 143.538C467.456 145.053 468.663 147.115 469.008 149.724Z" fill="#EDEDED"/>
</svg>
