<svg width="94" height="94" viewBox="0 0 94 94" fill="none" xmlns="http://www.w3.org/2000/svg">
<path d="M59.2937 93H34.7014C32.2011 93 30.9514 92.9979 29.775 92.7155C28.7319 92.4651 27.7362 92.0544 26.8216 91.4939C25.79 90.8618 24.9079 89.9798 23.14 88.2118L5.79167 70.8635C4.02486 69.0967 3.13933 68.2112 2.50738 67.1799C1.94691 66.2653 1.53285 65.2685 1.28244 64.2254C1 63.049 1 61.7939 1 59.2936V34.7014C1 32.2011 1 30.9514 1.28244 29.775C1.53285 28.7319 1.94691 27.7361 2.50738 26.8215C3.13377 25.7993 4.00766 24.9255 5.74357 23.1896L5.79167 23.14L23.14 5.79167L23.1894 5.74379C24.9254 4.00772 25.7993 3.1338 26.8215 2.50738C27.7361 1.94691 28.7319 1.53285 29.775 1.28244C30.9514 1 32.2011 1 34.7014 1H59.2937C61.7939 1 63.049 1 64.2254 1.28244C65.2684 1.53285 66.2653 1.94691 67.1799 2.50738C68.2112 3.13934 69.0967 4.02483 70.8635 5.79167L88.2118 23.1399C89.9795 24.9077 90.8619 25.79 91.494 26.8216C92.0544 27.7362 92.4651 28.7319 92.7155 29.775C92.9979 30.9514 93 32.2011 93 34.7014V59.2937M92.9979 59.2986C92.9979 61.7989 92.9979 63.049 92.7155 64.2255C92.4651 65.2685 92.0544 66.2653 91.494 67.1799C90.8618 68.2115 89.9797 69.0955 88.2118 70.8635L70.8635 88.2118C69.0956 89.9797 68.2115 90.8618 67.1799 91.494C66.2653 92.0545 65.2685 92.4651 64.2254 92.7155C63.049 92.9979 61.7989 92.9979 59.2986 92.9979" stroke="white" stroke-linecap="round" stroke-linejoin="round"/>
</svg>
